HIERARCHY
ROOT root     
{
	OFFSET 0.0000 0.0000 0.0000
	CHANNELS 6 Xposition Yposition Zposition Zrotation Yrotation Xrotation
	JOINT pelvis   
	{
		OFFSET 0.0000 0.0000 0.0000
		CHANNELS 3 Zrotation Yrotation Xrotation
		JOINT thorax   
		{
			OFFSET 0.0000 23.0750 -5.0000
			CHANNELS 3 Zrotation Yrotation Xrotation
			JOINT rclavicle
			{
				OFFSET 0.0000 28.0009 0.0000
				CHANNELS 3 Zrotation Yrotation Xrotation
				JOINT rhumerus 
				{
					OFFSET -18.5725 5.5939 0.0000
					CHANNELS 3 Zrotation Yrotation Xrotation
					JOINT rradius  
					{
						OFFSET -24.8459 0.0000 0.0000
						CHANNELS 3 Zrotation Yrotation Xrotation
						JOINT rhand    
						{
							OFFSET -24.5477 0.0000 0.0000
							CHANNELS 3 Zrotation Yrotation Xrotation
							End Site
							{
								OFFSET -8.1826 0.0000 0.0000
							}
						}
					}
				}
			}
			JOINT lclavicle
			{
				OFFSET 0.0000 28.0009 0.0000
				CHANNELS 3 Zrotation Yrotation Xrotation
				JOINT lhumerus 
				{
					OFFSET 18.5725 5.5939 0.0000
					CHANNELS 3 Zrotation Yrotation Xrotation
					JOINT lradius  
					{
						OFFSET 24.8459 0.0000 0.0000
						CHANNELS 3 Zrotation Yrotation Xrotation
						JOINT lhand    
						{
							OFFSET 24.5477 0.0000 0.0000
							CHANNELS 3 Zrotation Yrotation Xrotation
							End Site
							{
								OFFSET 8.1826 0.0000 0.0000
							}
						}
					}
				}
			}
			JOINT head     
			{
				OFFSET 0.0000 35.2030 0.0000
				CHANNELS 3 Zrotation Yrotation Xrotation
				End Site
				{
					OFFSET 0.0000 11.7343 0.0000
				}
			}
		}
		JOINT rfemur   
		{
			OFFSET -8.2817 0.0000 0.0000
			CHANNELS 3 Zrotation Yrotation Xrotation
			JOINT rtibia   
			{
				OFFSET 0.0000 -43.3627 0.0000
				CHANNELS 3 Zrotation Yrotation Xrotation
				JOINT rfoot    
				{
					OFFSET 0.0000 -38.2947 0.0000
					CHANNELS 3 Zrotation Yrotation Xrotation
					JOINT rtoes    
					{
						OFFSET 0.0000 0.0000 16.6054
						CHANNELS 3 Zrotation Yrotation Xrotation
						End Site
						{
							OFFSET 0.0000 0.0000 5.5351
						}
					}
				}
			}
		}
		JOINT lfemur   
		{
			OFFSET 8.2817 0.0000 0.0000
			CHANNELS 3 Zrotation Yrotation Xrotation
			JOINT ltibia   
			{
				OFFSET 0.0000 -43.3627 0.0000
				CHANNELS 3 Zrotation Yrotation Xrotation
				JOINT lfoot    
				{
					OFFSET 0.0000 -38.2947 0.0000
					CHANNELS 3 Zrotation Yrotation Xrotation
					JOINT ltoes    
					{
						OFFSET 0.0000 0.0000 16.6054
						CHANNELS 3 Zrotation Yrotation Xrotation
						End Site
						{
							OFFSET 0.0000 0.0000 5.5351
						}
					}
				}
			}
		}
	}
}
MOTION
Frames: 21
Frame Time: .0333333
30.899 87.019 3.8885 3.54715 -75.3813 6.67056 0 -0 0 -7.19675 -0.555991 -10.7811 1.48107 7.73596 -2.17951e-06 72.5088 59.2637 -15.8678 0 2.48567 0 0.226897 -4.06449 -0.00809986 -6.05543 4.07074 -3.86835e-06 -57.3494 -66.0982 -8.15445 180 -56.3117 180 26.9239 -15.6761 -3.77467 0.446809 -4.03266 3.95064 -1.1849 -7.98811 -5.34137 -0 -0 2.51285 0.651959 -13.7191 7.49328 -2.48787 1.03496e-05 -27.1615 0.906296 11.0593 -9.55122 -0 -0 0.432702 2.51609e-06 -0.617499 12.7552 -0.136402 -5.65166e-07 -31.3703 
30.834 86.995 3.9367 3.42382 -75.4505 6.59407 0 -0 0 -6.92844 -0.741005 -10.6048 2.79969 7.76952 -1.55557e-06 73.0334 58.1163 -17.6367 -1.74573e-08 3.30848 -6.04476e-07 0.655194 -3.27624 -0.0186999 -6.11535 4.26369 5.23943e-06 -56.2271 -65.8394 -9.27939 180 -55.976 180 27.287 -15.6789 -3.82821 0.558702 -3.64918 3.84591 -1.2058 -7.91104 -5.08184 -0 -0 2.46745 0.642952 -13.777 7.45442 -2.47756 -3.78232e-06 -27.1162 0.975628 11.032 -9.28218 -0 -0 0.424807 7.5575e-07 -0.528698 12.6364 -0.1157 9.73455e-08 -31.4252 
30.778 86.974 3.9878 3.29555 -75.5708 6.54145 0 -0 0 -6.62991 -0.925398 -10.4454 4.04148 7.63739 -2.36205e-06 73.5208 57.181 -18.4312 0 4.32228 0 1.41437 -2.97962 -0.036799 -6.16818 4.44637 2.56127e-06 -55.0653 -65.5519 -10.4593 -180 -55.6286 180 27.7325 -15.6698 -3.89091 0.648304 -3.23122 3.75853 -1.22817 -7.82768 -4.8467 -0 -0 2.40351 0.627183 -13.7956 7.44851 -2.46261 -8.24257e-07 -27.1163 1.03565 11.0323 -9.03407 -0 -0 0.420407 2.50906e-07 -0.422095 12.5201 -0.0915004 4.00383e-07 -31.4679 
30.733 86.956 4.0425 3.17711 -75.729 6.50693 0 -0 0 -6.3188 -1.1124 -10.32 5.16594 7.36854 8.18674e-06 74.0027 56.3273 -17.8921 -3.02833e-08 5.72174 -6.05988e-07 2.39546 -3.2861 -0.068699 -6.20203 4.60747 9.69639e-06 -53.9341 -65.2286 -11.6239 180 -55.2792 180 28.2208 -15.6613 -3.95997 0.726111 -2.79156 3.71528 -1.25487 -7.74468 -4.64621 -0 -0 2.32697 0.60625 -13.776 7.47237 -2.44425 2.27705e-06 -27.1659 1.07943 11.0648 -8.81675 -0 -0 0.418803 8.85892e-07 -0.311302 12.4093 -0.0669008 -4.00154e-07 -31.4967 
30.699 86.943 4.1019 3.08303 -75.9213 6.47821 0 -0 0 -6.00995 -1.30609 -10.2377 6.14077 7.00877 2.92454e-06 74.4344 55.4372 -15.9565 -4.06255e-08 7.6481 -6.07783e-07 3.49765 -4.15396 -0.1269 -6.20978 4.7398 -3.2568e-06 -52.8911 -64.8738 -12.7096 180 -54.9382 180 28.7106 -15.6614 -4.03162 0.8037 -2.34564 3.73853 -1.28906 -7.66801 -4.48579 -0 -0 2.24624 0.582727 -13.7207 7.52092 -2.42426 1.96637e-05 -27.2639 1.10229 11.1267 -8.63054 -0 -0 0.412902 -7.88506e-07 -0.202804 12.3114 -0.0432008 2.70608e-07 -31.5088 
30.676 86.934 4.1665 3.02514 -76.1346 6.4489 0 -0 0 -5.71782 -1.5111 -10.2067 6.9575 6.6113 -3.05489e-06 74.6698 54.4088 -12.7735 0 10.2118 0 4.63807 -5.44813 -0.220806 -6.18393 4.83884 2.74628e-06 -51.992 -64.4956 -13.655 180 -54.6142 180 29.163 -15.6848 -4.10414 0.89501 -1.91111 3.84468 -1.33254 -7.60154 -4.37078 -0 -0 2.16706 0.558735 -13.6367 7.58857 -2.40422 -1.19033e-05 -27.4065 1.10054 11.216 -8.48079 -0 -0 0.401603 -4.9228e-07 -0.105599 12.2273 -0.0224004 -8.61156e-09 -31.5023 
30.664 86.93 4.2368 3.01114 -76.3584 6.413 0 -0 0 -5.44546 -1.73497 -10.2296 7.60458 6.21601 1.67164e-06 74.5807 53.2742 -8.99751 0 13.2891 0 5.74408 -6.90336 -0.3468 -6.13225 4.90994 -3.50012e-06 -51.2437 -64.1138 -14.4442 180 -54.321 180 29.5446 -15.7364 -4.17406 1.0044 -1.50114 4.03992 -1.3859 -7.54622 -4.30351 -0 -0 2.09475 0.535818 -13.5344 7.66999 -2.38552 1.19909e-06 -27.5832 1.07266 11.3273 -8.36931 -0 -0 0.383807 1.21695e-07 -0.0243998 12.1579 -0.00509994 -1.32388e-08 -31.4772 
30.663 86.93 4.3126 3.04507 -76.5844 6.36488 0 -0 0 -5.19608 -1.98147 -10.3022 8.10541 5.83102 2.64941e-06 74.1014 52.1215 -5.097 0 16.722 0 6.71835 -8.25091 -0.485108 -6.06195 4.96047 2.89391e-07 -50.663 -63.7426 -15.0625 -180 -54.0658 180 29.8287 -15.8158 -4.23751 1.13639 -1.1299 4.32121 -1.44955 -7.50155 -4.28353 -0 -0 2.03298 0.515564 -13.4209 7.75899 -2.36955 6.03577e-06 -27.7861 1.01957 11.4533 -8.29591 -0 -0 0.359698 -2.56801e-07 0.0388997 12.1049 0.00820006 -2.35142e-08 -31.4336 
30.671 86.933 4.3934 3.12583 -76.8083 6.30279 0 -0 0 -4.95566 -2.25831 -10.4158 8.44233 5.45953 -4.90284e-06 73.3761 51.0953 -1.68956 -1.1316e-07 20.2563 -6.33479e-07 7.50665 -9.26827 -0.609297 -6.00108 5.00581 -3.66343e-06 -50.1903 -63.4074 -15.561 180 -53.8571 180 30.0101 -15.9134 -4.29106 1.27778 -0.800598 4.67542 -1.52212 -7.46468 -4.30741 -0 -0 1.98334 0.498429 -13.3063 7.85133 -2.35719 2.04282e-06 -28.0009 0.943576 11.5873 -8.26016 -0 -0 0.332094 -6.87875e-08 0.0842997 12.0659 0.0176001 -5.45227e-08 -31.3713 
30.689 86.938 4.4782 3.25038 -77.027 6.22565 0 -0 0 -4.72048 -2.5643 -10.5603 8.64024 5.10025 3.54876e-06 72.4872 50.2244 1.13092 -1.36417e-07 23.8533 -6.45854e-07 8.02534 -9.85516 -0.692992 -5.9578 5.05348 4.92131e-06 -49.8134 -63.1204 -15.951 180 -53.7005 180 30.0832 -16.0238 -4.33219 1.42446 -0.521306 5.08379 -1.60225 -7.43171 -4.37014 -0 -0 1.94549 0.484779 -13.199 7.94167 -2.3485 -1.69979e-05 -28.2184 0.848603 11.72 -8.25948 -0 -0 0.3041 -2.98636e-07 0.1146 12.0359 0.0239004 3.35272e-08 -31.2942 
30.715 86.945 4.566 3.4127 -77.2343 6.1361 0 -0 0 -4.48972 -2.89449 -10.7253 8.73707 4.74271 9.10135e-06 71.4896 49.5283 3.39241 0 27.4945 0 8.18437 -9.95321 -0.713897 -5.93334 5.10845 4.52539e-06 -49.5158 -62.8953 -16.2512 180 -53.5939 180 30.0529 -16.1369 -4.3586 1.57247 -0.2973 5.52351 -1.68841 -7.39877 -4.46549 -0 -0 1.91824 0.474406 -13.1032 8.02635 -2.34312 -4.291e-06 -28.4279 0.739001 11.8476 -8.29065 -0 -0 0.279601 6.2453e-09 0.133901 12.0106 0.0279001 -1.34811e-07 -31.204 
30.747 86.95 4.6552 3.60371 -77.4313 6.0376 0 -0 0 -4.26042 -3.24283 -10.9003 8.76042 4.38612 2.17615e-06 70.4353 49.0003 5.10403 0 31.1881 0 7.93184 -9.56684 -0.664795 -5.92868 5.17272 -1.18065e-06 -49.2823 -62.7352 -16.4812 -180 -53.5364 180 29.9356 -16.2477 -4.37103 1.71433 -0.128802 5.96972 -1.77822 -7.36196 -4.58725 -0 -0 1.89934 0.466675 -13.0216 8.1015 -2.34034 -1.26014e-05 -28.6241 0.619838 11.9609 -8.35054 -0 -0 0.262298 -4.44957e-07 0.146999 11.9854 0.0305006 4.05815e-08 -31.1063 
30.787 86.955 4.7443 3.81416 -77.6241 5.93535 0 -0 0 -4.03132 -3.60202 -11.0774 8.74656 4.01314 -3.20538e-06 69.3599 48.6489 6.33754 -2.20895e-07 34.9175 -7.02348e-07 7.24734 -8.72754 -0.553797 -5.93888 5.24823 -4.15889e-06 -49.1046 -62.6403 -16.654 180 -53.521 180 29.7505 -16.3487 -4.37013 1.84264 -0.0120009 6.39765 -1.86941 -7.31766 -4.73168 -0 -0 1.88583 0.461003 -12.9572 8.16616 -2.33946 1.12795e-05 -28.8022 0.495233 12.0592 -8.43812 -0 -0 0.255893 1.54026e-06 0.159104 11.9553 0.0329996 -6.81843e-08 -31.0049 
30.83 86.957 4.8323 4.03133 -77.8044 5.83705 0 -0 0 -3.79913 -3.96303 -11.2461 8.69502 3.66111 8.63159e-07 68.2686 48.4028 7.06045 0 38.7612 0 6.17896 -7.5662 -0.408995 -5.96041 5.32675 -1.64714e-06 -48.955 -62.5977 -16.8002 180 -53.5373 180 29.5237 -16.4324 -4.35773 1.94703 0.0605956 6.7871 -1.95999 -7.26468 -4.88887 -0 -0 1.87913 0.457551 -12.9067 8.21717 -2.33988 1.75749e-05 -28.9659 0.371639 12.1389 -8.54159 -0 -0 0.257703 1.95606e-07 0.1747 11.9171 0.0360999 -1.1238e-07 -30.9043 
30.876 86.955 4.9182 4.24713 -77.9815 5.74407 0 -0 0 -3.56194 -4.32024 -11.3982 8.62083 3.32684 -6.20554e-06 67.2004 48.2478 7.32305 0 42.719 0 4.83416 -6.21025 -0.262398 -5.9865 5.40483 -3.41436e-06 -48.8242 -62.5902 -16.9408 180 -53.5724 180 29.2783 -16.4955 -4.33667 2.01858 0.1011 7.12064 -2.04849 -7.20318 -5.0552 -0 -0 1.87982 0.45632 -12.8689 8.25298 -2.34079 1.19948e-05 -29.1174 0.252579 12.1993 -8.65572 -0 -0 0.266492 -1.3728e-07 0.195695 11.8711 0.0403002 -2.37058e-07 -30.8055 
30.925 86.95 5.0007 4.45651 -78.1486 5.66624 0 -0 0 -3.32263 -4.67165 -11.5394 8.55671 2.96069 -3.91854e-06 66.1855 48.2465 7.28218 0 46.7028 0 3.30297 -4.75549 -0.137204 -6.01037 5.48239 -7.59073e-06 -48.7049 -62.6116 -17.0784 180 -53.6197 180 29.0453 -16.5411 -4.31278 2.05462 0.122 7.38938 -2.13342 -7.13466 -5.23437 -0 -0 1.88583 0.456598 -12.8391 8.27584 -2.3417 2.22468e-06 -29.2611 0.137063 12.245 -8.78777 -0 -0 0.2858 8.12518e-07 0.222401 11.8157 0.0455014 -4.55811e-07 -30.7141 
30.976 86.942 5.0796 4.65606 -78.3124 5.60307 0 -0 0 -3.07905 -5.01422 -11.6644 8.48397 2.58965 -1.88463e-06 65.2421 48.3442 6.92805 0 50.7588 0 1.74631 -3.37355 -0.0514012 -6.02811 5.55095 3.27543e-07 -48.5769 -62.6428 -17.2338 180 -53.6669 180 28.8434 -16.5709 -4.28935 2.04926 0.1369 7.591 -2.21372 -7.0629 -5.4227 -0 -0 1.90209 0.459531 -12.8128 8.28407 -2.34255 1.88283e-05 -29.4029 0.0278857 12.276 -8.92815 -0 -0 0.308798 -4.15564e-07 0.253801 11.7526 0.0517003 3.65501e-07 -30.6293 
31.026 86.931 5.1547 4.84011 -78.4633 5.55866 0 -0 0 -2.83187 -5.34839 -11.7762 8.39673 2.21472 4.60774e-06 64.4 48.5191 6.31765 0 54.8807 0 0.280704 -2.15972 -0.00530012 -6.03749 5.60564 -6.25884e-06 -48.4302 -62.6699 -17.4143 -180 -53.7091 180 28.6863 -16.5902 -4.26997 2.0022 0.157596 7.73117 -2.28909 -6.99293 -5.62025 -0 -0 1.93301 0.466177 -12.7843 8.27815 -2.34346 7.22442e-06 -29.5521 -0.0756885 12.298 -9.074 -0 -0 0.331395 -1.0836e-06 0.286996 11.6858 0.058099 2.93171e-07 -30.5519 
31.076 86.918 5.2259 5.01337 -78.6099 5.53105 0 -0 0 -2.5831 -5.67703 -11.8808 8.29588 1.82824 -4.45261e-06 63.6687 48.772 5.51983 0 59.0373 0 -1.02129 -1.15345 0.0103004 -6.03788 5.64354 -9.14524e-07 -48.2652 -62.6782 -17.6186 180 -53.7443 180 28.5846 -16.6097 -4.25933 1.91767 0.193097 7.82136 -2.35898 -6.9307 -5.83143 -0 -0 1.9807 0.476245 -12.7524 8.25925 -2.3447 1.15214e-05 -29.7124 -0.175907 12.3142 -9.22858 -0 -0 0.351597 1.50768e-06 0.319403 11.6189 0.0643007 -3.03622e-07 -30.48 
31.124 86.905 5.2938 5.17644 -78.7397 5.51269 0 -0 0 -2.3339 -6.00073 -11.9744 8.15209 1.47456 -4.02189e-06 63.0606 49.0301 4.52552 8.07889e-07 63.2623 4.97625e-07 -2.14336 -0.324695 0.00609982 -6.02926 5.65801 6.09512e-06 -48.0702 -62.6541 -17.8596 180 -53.765 180 28.5335 -16.6317 -4.25713 1.80027 0.249901 7.87611 -2.42487 -6.88097 -6.0495 -0 -0 2.05668 0.492872 -12.7093 8.22388 -2.34726 -1.28847e-06 -29.8931 -0.271946 12.3305 -9.37416 -0 -0 0.357991 -5.23704e-09 0.346001 11.5557 0.0692991 -3.81556e-07 -30.4128 
31.17 86.891 5.3583 5.33505 -78.864 5.50536 0 -0 0 -2.08808 -6.32366 -12.0737 7.98619 1.12649 -7.00073e-07 62.5773 49.3269 3.42536 9.26887e-07 67.4801 6.19102e-07 -3.08399 0.365702 -0.00980007 -6.0151 5.65119 -4.93858e-06 -47.8574 -62.6048 -18.11 -180 -53.7787 180 28.5318 -16.6701 -4.26674 1.66327 0.328201 7.91515 -2.48566 -6.84956 -6.28558 -0 -0 2.15722 0.514766 -12.6548 8.17709 -2.35055 1.61574e-05 -30.0906 -0.368953 12.3478 -9.52644 -0 -0 0.354897 -9.75161e-07 0.366796 11.5004 0.0731016 -3.62957e-07 -30.3483 
